<?xml version="1.0" standalone="no"?>
<!DOCTYPE svg PUBLIC "-//W3C//DTD SVG 20010904//EN"
 "http://www.w3.org/TR/2001/REC-SVG-20010904/DTD/svg10.dtd">
<svg version="1.0" xmlns="http://www.w3.org/2000/svg"
 width="260.000000pt" height="260.000000pt" viewBox="0 0 260.000000 260.000000"
 preserveAspectRatio="xMidYMid meet">
<metadata>
Created by potrace 1.14, written by Peter Selinger 2001-2017
</metadata>
<g transform="translate(0.000000,260.000000) scale(0.100000,-0.100000)"
fill="#000000" stroke="none">
<path d="M2468 2582 c4 -11 2 -13 -8 -7 -9 5 -11 4 -6 -4 4 -6 13 -8 19 -5 7
4 9 4 5 -1 -4 -4 -2 -15 5 -24 10 -14 10 -14 -4 -3 -14 10 -18 10 -23 -3 -3
-9 -2 -14 2 -11 17 10 30 -9 16 -22 -8 -7 -14 -8 -14 -3 0 5 -9 9 -19 8 -10 0
-17 -7 -14 -13 6 -17 -16 -56 -28 -49 -5 4 -9 2 -9 -3 0 -5 -11 -14 -24 -20
-19 -8 -23 -17 -21 -41 2 -24 0 -29 -10 -21 -6 5 -16 6 -21 2 -4 -4 -3 0 4 9
6 9 8 20 4 24 -4 5 -1 5 7 0 9 -5 12 -4 7 3 -3 6 3 17 14 25 11 7 17 17 12 22
-4 5 -2 5 5 1 6 -3 14 -2 18 4 4 6 10 8 15 5 12 -7 19 20 9 36 -7 11 -9 11 -9
1 0 -7 -4 -10 -10 -7 -6 4 -7 -1 -3 -11 4 -11 3 -15 -5 -10 -6 3 -18 -4 -27
-16 -8 -13 -20 -23 -25 -23 -6 0 -10 -4 -9 -9 0 -5 -5 -13 -13 -17 -10 -7 -10
-9 0 -9 7 0 10 -5 7 -10 -4 -6 -12 -7 -18 -4 -7 4 -9 4 -5 -1 4 -4 2 -15 -5
-24 -11 -14 -10 -14 6 -2 12 10 17 10 17 1 0 -6 -9 -14 -20 -17 -10 -3 -22
-14 -25 -24 -6 -17 -8 -16 -31 9 l-25 27 16 -27 c12 -19 13 -27 4 -30 -11 -4
-16 -18 -21 -60 -1 -9 -6 -14 -10 -12 -4 3 -8 -3 -8 -13 0 -15 -2 -15 -9 -4
-7 10 -5 18 5 25 7 6 15 20 17 31 1 11 6 26 11 33 5 8 3 19 -3 25 -9 9 -10 8
-5 -7 6 -16 5 -17 -17 -7 -20 10 -21 10 -8 -1 23 -18 15 -49 -19 -78 -21 -18
-28 -32 -26 -50 3 -17 1 -21 -5 -12 -7 11 -9 11 -14 -2 -4 -9 -12 -15 -19 -14
-8 2 -13 -6 -12 -20 1 -18 -1 -20 -12 -11 -11 9 -11 15 -3 25 7 9 8 14 1 14
-8 0 -23 -22 -26 -40 -3 -16 -21 -32 -43 -41 -22 -8 -23 -11 -12 -26 10 -12
10 -15 2 -9 -7 4 -13 2 -13 -3 0 -6 -7 -11 -16 -11 -8 0 -13 -4 -10 -8 2 -4 1
-14 -4 -22 -6 -10 -3 -21 8 -35 17 -20 17 -20 -5 -1 -13 11 -24 15 -24 10 -1
-5 -2 -13 -4 -19 -1 -5 -3 -14 -3 -19 -1 -4 -12 -1 -25 7 -20 13 -24 13 -24 1
0 -8 2 -12 5 -9 4 4 32 -20 32 -28 0 -2 -7 -4 -15 -4 -8 0 -12 4 -9 9 3 4 -2
8 -10 8 -9 0 -16 6 -16 13 0 8 -4 7 -10 -3 -5 -8 -10 -19 -10 -25 0 -5 4 -4 9
4 7 11 11 9 21 -9 8 -15 8 -20 1 -16 -6 4 -11 1 -11 -6 0 -8 -5 -6 -11 5 -13
23 -26 22 -34 -3 -3 -11 -11 -20 -18 -20 -8 0 -8 3 1 12 15 15 15 28 1 28 -5
0 -8 -4 -4 -9 3 -5 1 -12 -5 -16 -6 -4 -8 -11 -5 -16 4 -5 0 -9 -7 -9 -7 -1
-2 -7 11 -14 17 -10 20 -15 10 -18 -8 -3 -23 2 -33 11 -11 9 -17 11 -13 5 8
-14 -24 -52 -41 -48 -7 1 -8 0 -2 -3 7 -3 7 -10 -2 -21 -11 -13 -11 -14 2 -7
8 4 12 5 8 0 -4 -4 -3 -14 2 -20 7 -9 6 -16 -4 -24 -10 -8 -16 -9 -21 -1 -4 6
-3 9 2 8 4 -2 8 2 8 7 0 6 -5 9 -12 9 -7 -1 -9 8 -7 22 2 13 0 24 -5 24 -6 0
-8 -9 -6 -20 2 -10 -5 -30 -16 -44 -18 -23 -19 -25 -2 -35 11 -6 13 -11 5 -11
-7 0 -10 -5 -7 -10 4 -6 11 -7 17 -4 7 4 8 2 4 -5 -4 -6 -11 -9 -16 -6 -4 3
-11 -2 -14 -11 -4 -9 -9 -14 -13 -11 -3 4 -12 -1 -18 -10 -10 -13 -16 -14 -26
-7 -25 20 -48 24 -43 9 4 -9 -7 -22 -28 -35 -27 -18 -28 -20 -8 -14 22 6 23 5
12 -9 -7 -9 -22 -14 -34 -12 -16 3 -17 1 -8 -10 7 -8 7 -15 1 -19 -5 -3 -11
-3 -14 1 -2 5 -2 3 -1 -4 4 -18 -21 -34 -42 -28 -11 4 -7 -1 9 -10 15 -8 27
-21 27 -28 0 -8 -4 -6 -10 3 -5 8 -10 11 -10 6 0 -5 -7 -3 -15 4 -8 7 -15 9
-15 5 0 -4 -6 -2 -14 4 -11 9 -16 9 -22 0 -4 -7 -3 -9 4 -5 6 3 13 2 17 -4 3
-6 -1 -13 -10 -16 -14 -6 -14 -8 2 -19 10 -8 15 -17 11 -21 -4 -4 -3 -13 3
-20 7 -8 7 -14 -1 -19 -6 -4 -9 -1 -8 7 2 8 -5 12 -17 10 -11 -2 -30 -3 -42
-3 -13 1 -23 -3 -23 -7 0 -12 53 -9 63 3 5 6 6 1 2 -10 -4 -11 -8 -26 -8 -32
0 -7 -4 -13 -9 -13 -5 0 -6 9 -3 20 4 13 2 20 -6 18 -19 -5 -64 -52 -61 -65 2
-7 -6 -10 -18 -8 -11 2 -20 -1 -20 -6 0 -6 -5 -7 -10 -4 -6 4 -10 3 -9 -2 1
-4 0 -10 -1 -13 -7 -18 -6 -57 2 -67 6 -7 5 -14 -2 -18 -6 -3 -8 -11 -5 -16 3
-5 -2 -6 -11 -2 -11 4 -15 3 -10 -5 3 -6 1 -14 -5 -18 -7 -4 -9 -3 -5 4 3 6 2
13 -3 16 -5 4 -13 -3 -16 -15 -4 -12 -12 -18 -21 -15 -8 3 -14 0 -14 -6 0 -6
-3 -8 -6 -5 -4 4 -1 14 7 24 12 15 12 16 -3 10 -13 -4 -15 -2 -11 10 4 10 2
14 -5 9 -6 -3 -18 4 -26 16 -10 13 -16 17 -16 9 0 -8 -3 -11 -6 -8 -4 4 -1 13
6 22 7 8 8 15 2 15 -16 0 -24 32 -11 44 9 8 10 8 4 -2 -4 -8 0 -21 11 -33 9
-10 14 -19 10 -19 -4 0 -2 -9 4 -21 7 -11 14 -18 17 -15 4 3 12 1 20 -5 9 -8
13 -8 13 -1 0 6 -8 13 -17 16 -21 7 -45 53 -32 62 5 3 9 0 9 -5 0 -6 5 -11 11
-11 8 0 8 5 -1 15 -10 12 -16 13 -28 3 -13 -11 -14 -9 -7 11 8 25 9 25 -42 4
-7 -3 -11 3 -10 15 0 12 5 18 9 16 5 -3 5 -11 2 -17 -4 -7 -3 -8 1 -4 21 18 8
77 -16 77 -6 0 -3 -7 5 -16 18 -17 22 -39 6 -29 -6 3 -14 -4 -18 -16 l-9 -23
-6 23 c-3 13 -10 20 -16 16 -6 -3 -8 -11 -5 -17 4 -7 2 -8 -4 -4 -6 4 -9 13
-5 21 6 18 15 19 30 4 7 -7 12 -6 17 6 3 9 2 14 -3 11 -5 -3 -11 1 -15 9 -3 8
-1 17 4 20 6 4 10 11 10 18 0 6 -6 2 -14 -8 -8 -11 -12 -24 -9 -30 4 -5 -5 1
-19 13 -25 23 -27 23 -37 5 -6 -10 -11 -13 -11 -7 0 5 6 16 13 23 10 11 9 13
-5 8 -10 -3 -20 -2 -23 4 -4 5 -3 9 2 8 20 -3 34 2 28 11 -4 6 -11 8 -16 4 -6
-3 -16 2 -24 12 -7 11 -19 19 -27 19 -7 1 -12 6 -10 13 1 7 -3 12 -9 12 -6 0
-8 9 -4 20 4 11 2 20 -4 20 -6 0 -11 -8 -11 -17 0 -13 -4 -12 -13 7 -8 14 -19
24 -26 22 -7 -1 -10 2 -6 8 3 6 10 8 15 5 4 -3 11 3 15 12 3 10 2 19 -4 21 -5
2 -9 9 -7 15 1 7 1 9 -1 5 -6 -10 -23 -10 -22 0 1 4 1 18 -1 32 -1 23 -2 23
-10 5 -12 -27 -12 -37 -1 -30 6 3 8 -3 6 -14 -2 -13 1 -18 10 -15 7 3 16 0 20
-7 5 -7 3 -10 -6 -7 -8 3 -19 -2 -25 -10 -8 -12 -12 -11 -25 5 -13 17 -13 17
4 4 15 -12 17 -11 14 9 -2 13 -13 31 -25 41 -12 9 -22 23 -22 31 1 9 5 8 14
-4 17 -23 25 -23 21 0 -2 9 -4 23 -4 30 -1 6 -5 12 -11 12 -5 0 -7 -6 -4 -13
7 -20 -32 -18 -51 3 -9 10 -24 17 -33 14 -10 -2 -2 3 16 11 38 18 39 20 8 20
-13 0 -22 -3 -19 -7 2 -5 -1 -8 -6 -8 -17 0 -13 18 10 41 18 18 18 20 2 17
-10 -2 -17 2 -15 10 3 17 -3 15 -19 -5 -12 -14 -12 -16 0 -8 10 6 12 4 6 -5
-6 -9 -4 -11 6 -5 12 7 12 6 0 -6 -10 -11 -15 -11 -18 -1 -3 6 -9 9 -15 6 -5
-4 -2 6 8 21 18 27 29 64 16 50 -4 -4 -8 -11 -8 -16 -3 -22 -5 -23 -15 -9 -8
13 -9 12 -7 -4 2 -10 -2 -21 -8 -23 -6 -2 -11 9 -11 26 0 22 4 28 16 23 17 -6
16 -4 -13 18 -13 10 -17 10 -12 2 5 -8 -2 -16 -20 -22 -15 -6 -29 -8 -32 -5
-3 3 0 5 7 5 7 0 3 9 -10 21 -13 11 -19 18 -13 15 12 -6 39 43 29 52 -3 3 -5
-1 -5 -9 -1 -8 -8 -1 -16 14 -8 15 -19 25 -23 22 -5 -2 -14 1 -20 8 -14 17
-50 15 -63 -4 -8 -11 -9 -11 -5 3 3 9 1 18 -6 21 -6 2 -3 6 7 10 9 4 15 3 11
-3 -6 -10 34 -5 44 6 3 4 -2 4 -11 1 -20 -7 -38 19 -31 43 4 13 3 13 -6 0 -5
-8 -8 -17 -5 -22 2 -4 -5 -12 -16 -18 -20 -11 -21 -10 -10 9 6 12 8 22 5 22
-3 1 -11 2 -17 3 -7 1 -11 10 -10 21 3 17 2 17 -14 4 -16 -12 -17 -12 -9 1 16
26 12 46 -9 48 -11 0 -24 -4 -28 -11 -6 -9 -8 -9 -8 1 0 6 -5 12 -11 12 -5 0
-7 -5 -3 -12 4 -7 3 -8 -4 -4 -16 10 -15 14 9 27 17 9 20 8 13 -3 -7 -11 -5
-11 9 0 9 8 22 10 28 6 8 -4 9 -3 5 4 -4 7 -20 10 -39 7 -31 -5 -31 -4 -12 11
18 15 18 16 2 10 -20 -7 -64 18 -49 28 6 3 13 -1 16 -10 9 -22 21 -9 21 23 1
21 -1 22 -11 9 -6 -9 -14 -13 -17 -9 -4 3 -1 13 6 22 11 14 10 15 -7 1 -18
-14 -19 -13 -13 2 4 12 2 15 -9 11 -13 -5 -13 -8 2 -24 9 -11 12 -19 7 -19 -6
0 -13 7 -17 15 -3 8 -17 20 -32 25 -15 6 -24 13 -21 16 3 3 14 1 26 -5 20 -11
41 2 27 16 -3 4 -6 1 -6 -5 0 -6 -7 -9 -15 -6 -8 4 -15 14 -15 23 0 10 -3 12
-8 5 -10 -15 -42 -25 -42 -14 0 6 7 10 16 10 8 0 12 5 9 10 -3 6 -1 10 6 10 7
0 9 3 6 6 -4 4 -13 2 -20 -4 -8 -7 -17 -9 -20 -5 -4 3 -7 1 -7 -6 0 -7 -5 -9
-11 -5 -8 4 -7 9 2 15 11 6 9 12 -5 28 -10 11 -22 18 -27 16 -4 -3 -11 0 -15
6 -4 7 -3 9 4 5 6 -3 13 -2 17 3 3 6 13 7 21 4 11 -4 12 -8 4 -13 -8 -5 -8
-10 -2 -14 5 -3 12 1 16 9 3 10 -5 20 -25 31 -17 8 -28 11 -25 5 4 -6 2 -11
-3 -11 -6 0 -11 7 -11 15 0 8 5 15 10 15 6 0 10 4 10 8 0 5 -7 9 -14 9 -8 0
-15 -3 -14 -6 3 -26 -3 -32 -17 -17 -9 8 -22 13 -30 10 -13 -5 -15 -161 -15
-1170 l0 -1164 1300 0 1300 0 0 1301 0 1300 -69 -2 c-57 -2 -68 -5 -63 -17z
m-28 -119 c-11 -17 -11 -17 -6 0 3 10 6 24 7 30 0 9 2 9 5 0 3 -7 0 -20 -6
-30z m40 2 c-7 -8 -16 -15 -21 -15 -5 0 -1 8 9 18 20 22 31 19 12 -3z m-2446
-156 c-3 -5 -10 -7 -15 -3 -5 3 -7 10 -3 15 3 5 10 7 15 3 5 -3 7 -10 3 -15z
m2301 11 c3 -6 -1 -7 -9 -4 -18 7 -21 14 -7 14 6 0 13 -4 16 -10z m-35 -20
c-8 -5 -19 -10 -25 -10 -5 0 -3 5 5 10 8 5 20 10 25 10 6 0 3 -5 -5 -10z
m-2240 -16 c0 -8 -19 -13 -24 -6 -3 5 1 9 9 9 8 0 15 -2 15 -3z m2107 -94 c-2
-24 -12 -26 -21 -4 -3 8 -2 12 4 9 6 -3 10 -1 10 4 0 6 2 11 4 11 3 0 4 -9 3
-20z m-1998 -23 c8 -10 7 -14 -2 -14 -8 0 -14 6 -14 14 0 7 1 13 2 13 2 0 8
-6 14 -13z m46 -27 c3 -6 -1 -7 -9 -4 -18 7 -21 14 -7 14 6 0 13 -4 16 -10z
m1855 -51 c0 -5 5 -7 10 -4 6 3 10 1 10 -4 0 -14 -13 -14 -26 -1 -8 8 -15 6
-25 -6 -13 -16 -12 -17 6 -10 18 7 18 5 -3 -14 -21 -20 -23 -20 -39 -4 -16 16
-16 16 7 9 14 -4 22 -4 17 0 -4 5 0 17 10 27 18 20 33 24 33 7z m-1815 -9 c-3
-5 -12 -10 -18 -10 -7 0 -6 4 3 10 19 12 23 12 15 0z m82 -66 c-3 -3 -12 -4
-19 -1 -8 3 -5 6 6 6 11 1 17 -2 13 -5z m1673 2 c0 -3 -4 -8 -10 -11 -5 -3
-10 -1 -10 4 0 6 5 11 10 11 6 0 10 -2 10 -4z m-1525 -134 c-10 -10 -35 -11
-29 -1 3 5 -3 9 -13 10 -16 0 -16 1 2 8 19 8 51 -6 40 -17z m29 -24 c-3 -4 0
-8 5 -8 6 0 11 -5 11 -11 0 -5 -4 -8 -9 -4 -6 3 -14 -3 -20 -12 -6 -10 -11
-13 -11 -6 0 6 5 15 10 18 16 10 1 25 -17 18 -13 -5 -13 -3 3 13 18 19 40 12
28 -8z m1316 -8 c-6 -11 -18 -20 -28 -19 -14 0 -14 2 -2 6 8 3 19 12 23 19 13
22 19 16 7 -6z m-53 -72 c-6 -4 -15 -4 -19 -2 -4 3 -8 1 -8 -5 0 -5 6 -11 13
-14 6 -2 0 -4 -15 -4 l-27 0 22 26 c16 20 25 24 33 17 9 -8 9 -13 1 -18z
m-1187 -18 c0 -5 -2 -10 -4 -10 -3 0 -8 5 -11 10 -3 6 -1 10 4 10 6 0 11 -4
11 -10z m1217 4 c-3 -3 -12 -4 -19 -1 -8 3 -5 6 6 6 11 1 17 -2 13 -5z m-1233
-22 c2 -4 -4 -8 -14 -8 -10 0 -16 4 -14 8 3 4 9 8 14 8 5 0 11 -4 14 -8z
m1102 -41 c-4 -5 0 -11 6 -14 7 -3 3 -4 -9 -4 -17 1 -19 4 -11 14 12 15 22 18
14 4z m29 -41 c3 -6 -1 -7 -9 -4 -18 7 -21 14 -7 14 6 0 13 -4 16 -10z m-1015
-41 c0 -5 -4 -9 -8 -9 -5 0 -9 7 -9 15 0 8 4 12 9 9 4 -3 8 -9 8 -15z m891
-61 c-10 -11 -11 -9 -5 7 6 15 0 13 -22 -10 -22 -23 -27 -34 -19 -44 8 -11 7
-13 -4 -7 -10 7 -12 3 -7 -15 l7 -24 -14 23 c-7 12 -16 20 -20 16 -4 -4 -1
-14 6 -23 10 -14 10 -14 -4 -4 -16 13 -29 8 -29 -9 0 -5 5 -6 10 -3 6 3 10 1
10 -4 0 -13 -10 -14 -28 -3 -9 6 -6 14 13 32 13 12 22 27 19 32 -3 5 -2 7 3 6
11 -3 53 25 53 35 0 4 -6 5 -12 1 -7 -4 -4 2 6 15 18 19 21 20 35 6 12 -12 13
-17 2 -27z m69 38 c0 -2 -8 -10 -17 -17 -16 -13 -17 -12 -4 4 13 16 21 21 21
13z m-925 -44 c-3 -3 -11 0 -18 7 -9 10 -8 11 6 5 10 -3 15 -9 12 -12z m723
-133 c14 0 14 -2 2 -6 -8 -4 -21 -13 -28 -22 -11 -13 -11 -12 -1 8 10 20 9 23
-4 18 -21 -8 -28 2 -14 18 10 11 13 10 20 -1 4 -8 16 -14 25 -15z m-558 -13
c0 -3 -4 -8 -10 -11 -5 -3 -10 -1 -10 4 0 6 5 11 10 11 6 0 10 -2 10 -4z m74
-96 c-6 -6 -10 -3 -10 10 0 13 4 16 10 10 7 -7 7 -13 0 -20z m373 7 c0 -8 -6
-14 -14 -14 -9 0 -10 4 -2 14 6 7 12 13 14 13 1 0 2 -6 2 -13z m34 -34 c13
-16 12 -17 -3 -4 -10 7 -18 15 -18 17 0 8 8 3 21 -13z m-31 -2 c0 -5 -8 -8
-17 -7 -10 0 -17 -5 -15 -11 1 -7 -2 -13 -8 -13 -14 0 -13 13 2 28 14 14 38
16 38 3z m-86 -45 c-3 -9 -10 -13 -16 -10 -5 3 -4 12 3 20 15 18 22 13 13 -10z
m-206 -21 c-3 -3 -9 2 -12 12 -6 14 -5 15 5 6 7 -7 10 -15 7 -18z m242 6 c0
-4 -6 -8 -14 -8 -8 0 -12 6 -9 14 5 13 23 9 23 -6z m-30 -21 c8 -5 11 -10 5
-10 -5 0 -17 5 -25 10 -8 5 -10 10 -5 10 6 0 17 -5 25 -10z m-152 -75 c-3 -3
-9 2 -12 12 -6 14 -5 15 5 6 7 -7 10 -15 7 -18z"/>
<path d="M2434 2550 c0 -13 4 -16 10 -10 7 7 7 13 0 20 -6 6 -10 3 -10 -10z"/>
<path d="M2330 2459 c0 -5 5 -7 10 -4 6 3 10 8 10 11 0 2 -4 4 -10 4 -5 0 -10
-5 -10 -11z"/>
<path d="M20 2366 c0 -2 8 -10 18 -17 15 -13 16 -12 3 4 -13 16 -21 21 -21 13z"/>
<path d="M2256 2335 c-9 -26 -7 -32 5 -12 6 10 9 21 6 23 -2 3 -7 -2 -11 -11z"/>
<path d="M136 2262 c-2 -4 0 -14 6 -22 8 -12 9 -11 4 4 -5 14 -2 17 9 12 9 -3
13 -2 10 4 -7 12 -22 13 -29 2z"/>
<path d="M2155 2250 c-16 -17 -16 -20 -3 -15 9 4 19 13 22 21 7 19 2 18 -19
-6z"/>
<path d="M2115 2210 c-3 -5 -3 -14 0 -20 3 -5 1 -10 -4 -10 -6 0 -11 -8 -11
-17 1 -16 2 -15 12 2 17 29 20 72 3 45z"/>
<path d="M2035 2161 c-3 -5 -2 -12 3 -15 5 -3 9 1 9 9 0 17 -3 19 -12 6z"/>
<path d="M2010 2100 c-9 -6 -10 -10 -3 -10 6 0 15 5 18 10 8 12 4 12 -15 0z"/>
<path d="M366 2035 c-3 -8 -1 -17 5 -21 6 -3 8 -13 4 -22 -3 -9 -3 -13 1 -9 4
4 13 2 21 -4 8 -8 13 -8 13 -1 0 6 -6 13 -12 15 -9 4 -10 8 -2 14 7 5 4 14 -7
25 -14 13 -18 14 -23 3z"/>
<path d="M1950 2040 c0 -5 5 -10 10 -10 6 0 10 5 10 10 0 6 -4 10 -10 10 -5 0
-10 -4 -10 -10z"/>
<path d="M1929 2023 c-1 -5 -2 -14 -3 -21 0 -7 -8 -17 -16 -22 -13 -9 -13 -10
0 -10 8 0 21 9 28 20 8 13 8 20 1 20 -5 0 -7 5 -4 10 3 6 4 10 1 10 -3 0 -7
-3 -7 -7z"/>
<path d="M1894 1951 c20 -22 26 -25 26 -13 0 4 -10 13 -22 21 -23 14 -23 14
-4 -8z"/>
<path d="M495 1920 c-3 -5 -1 -10 4 -10 6 0 11 5 11 10 0 6 -2 10 -4 10 -3 0
-8 -4 -11 -10z"/>
<path d="M545 1824 c-9 -15 -12 -24 -7 -20 6 3 12 0 15 -6 2 -7 8 -9 13 -5 5
4 2 12 -6 17 -8 6 -10 10 -4 10 6 0 11 7 11 15 0 20 -2 19 -22 -11z"/>
<path d="M675 1700 c3 -5 8 -10 11 -10 2 0 4 5 4 10 0 6 -5 10 -11 10 -5 0 -7
-4 -4 -10z"/>
<path d="M1626 1665 c8 -19 -5 -37 -19 -28 -34 21 -46 3 -18 -26 11 -13 14
-12 23 2 5 10 13 15 19 12 5 -4 9 -3 10 2 0 4 2 16 4 25 2 9 -3 19 -10 22 -9
3 -12 0 -9 -9z m-21 -35 c3 -5 1 -10 -4 -10 -6 0 -11 5 -11 10 0 6 2 10 4 10
3 0 8 -4 11 -10z"/>
<path d="M702 1661 c-10 -6 -10 -10 3 -21 13 -11 14 -10 9 5 -6 14 -4 16 6 10
9 -5 11 -4 6 3 -8 14 -7 14 -24 3z"/>
<path d="M1496 1595 c-9 -26 -7 -32 5 -12 6 10 9 21 6 23 -2 3 -7 -2 -11 -11z"/>
<path d="M830 1515 c-5 -7 -7 -15 -4 -18 7 -6 44 14 44 24 0 10 -30 6 -40 -6z"/>
<path d="M1430 1500 c-13 -8 -12 -10 3 -10 9 0 17 5 17 10 0 12 -1 12 -20 0z"/>
<path d="M874 1485 c3 -8 0 -15 -6 -15 -7 0 -7 -4 1 -13 6 -8 7 -18 3 -22 -4
-5 -2 -5 4 -2 6 4 19 -2 29 -13 10 -11 22 -17 26 -14 5 3 19 -2 31 -10 21 -15
18 -21 -7 -17 -5 1 -2 -6 7 -15 14 -15 20 -16 30 -5 11 10 9 11 -6 5 -15 -6
-17 -4 -11 7 14 21 14 50 1 40 -7 -6 -18 -4 -29 4 -10 7 -14 15 -10 17 4 3 3
3 -4 2 -7 -2 -15 1 -18 6 -4 6 2 10 12 11 16 0 16 1 -2 8 -12 5 -25 4 -33 -2
-10 -8 -12 -4 -8 16 3 15 0 27 -6 27 -5 0 -8 -7 -4 -15z m33 -32 c-4 -3 1 -16
10 -27 18 -21 18 -21 -4 -2 -20 16 -23 36 -6 36 4 0 3 -3 0 -7z"/>
<path d="M916 1478 c3 -5 10 -6 15 -3 13 9 11 12 -6 12 -8 0 -12 -4 -9 -9z"/>
<path d="M1341 1394 c0 -11 3 -14 6 -6 3 7 2 16 -1 19 -3 4 -6 -2 -5 -13z"/>
<path d="M1360 1402 c0 -5 7 -9 15 -9 8 0 12 4 9 9 -3 4 -9 8 -15 8 -5 0 -9
-4 -9 -8z"/>
<path d="M1284 1335 c-4 -8 -11 -12 -17 -8 -6 4 -7 1 -2 -7 6 -10 11 -10 20 3
7 9 16 13 20 9 5 -4 5 -1 1 6 -9 16 -15 15 -22 -3z"/>
<path d="M1250 1300 c0 -5 5 -10 11 -10 5 0 7 5 4 10 -3 6 -8 10 -11 10 -2 0
-4 -4 -4 -10z"/>
<path d="M1193 1225 c0 -8 4 -15 9 -15 4 0 8 4 8 9 0 6 -4 12 -8 15 -5 3 -9
-1 -9 -9z"/>
<path d="M1156 1194 c-11 -8 -16 -14 -10 -14 13 0 39 18 34 24 -3 2 -14 -2
-24 -10z"/>
<path d="M1183 1180 c-12 -9 -19 -20 -16 -24 4 -3 2 -6 -4 -6 -5 0 -10 -7 -10
-16 0 -14 2 -14 14 2 7 10 13 23 13 28 0 6 5 4 10 -4 7 -11 10 -11 10 -2 0 7
4 11 9 7 15 -9 22 12 8 23 -8 7 -18 5 -34 -8z m31 2 c3 -5 -1 -9 -9 -9 -8 0
-12 4 -9 9 3 4 7 8 9 8 2 0 6 -4 9 -8z"/>
</g>
</svg>
